HIERARCHY
ROOT Hips
{
	OFFSET 0.000000 0.000000 0.000000 
	CHANNELS 6 Xposition Yposition Zposition Zrotation Yrotation Xrotation
	JOINT LeftUpLeg
	{
		OFFSET 1.363060 -1.794630 0.839290 
		CHANNELS 3 Zrotation Yrotation Xrotation
		JOINT LeftLeg
		{
			OFFSET 2.448110 -6.726130 0.000000 
			CHANNELS 3 Zrotation Yrotation Xrotation
			JOINT LeftFoot
			{
				OFFSET 2.562200 -7.039590 0.000000 
				CHANNELS 3 Zrotation Yrotation Xrotation
				JOINT LeftToeBase
				{
					OFFSET 0.157640 -0.433110 2.322550 
					CHANNELS 3 Zrotation Yrotation Xrotation
					End Site
					{
						OFFSET 0.000000 0.000000 0.000000 
					}
				}
			}
		}
	}
	JOINT RightUpLeg
	{
		OFFSET -1.305520 -1.794630 0.839290 
		CHANNELS 3 Zrotation Yrotation Xrotation
		JOINT RightLeg
		{
			OFFSET -2.542530 -6.985550 0.000000 
			CHANNELS 3 Zrotation Yrotation Xrotation
			JOINT RightFoot
			{
				OFFSET -2.568260 -7.056230 0.000000 
				CHANNELS 3 Zrotation Yrotation Xrotation
				JOINT RightToeBase
				{
					OFFSET -0.164730 -0.452590 2.363150 
					CHANNELS 3 Zrotation Yrotation Xrotation
					End Site
					{
						OFFSET 0.000000 0.000000 0.000000 
					}
				}
			}
		}
	}
	JOINT Spine
	{
		OFFSET 0.028270 2.035590 -0.193380 
		CHANNELS 3 Zrotation Yrotation Xrotation
		JOINT Spine1
		{
			OFFSET 0.056720 2.048850 -0.042750 
			CHANNELS 3 Zrotation Yrotation Xrotation
			JOINT Neck1
			{
				OFFSET -0.054170 1.746240 0.172020 
				CHANNELS 3 Zrotation Yrotation Xrotation
				JOINT Head
				{
					OFFSET 0.104070 1.761360 -0.123970 
					CHANNELS 3 Zrotation Yrotation Xrotation
					End Site
					{
						OFFSET 0.000000 0.000000 0.000000 
					}
				}
			}
			JOINT LeftArm
			{
				OFFSET 3.362410 1.200890 -0.311210 
				CHANNELS 3 Zrotation Yrotation Xrotation
				JOINT LeftForeArm
				{
					OFFSET 4.983000 -0.000000 -0.000000 
					CHANNELS 3 Zrotation Yrotation Xrotation
					JOINT LeftHand
					{
						OFFSET 3.483560 -0.000000 -0.000000 
						CHANNELS 3 Zrotation Yrotation Xrotation
						JOINT LeftHandIndex1
						{
							OFFSET 0.715260 -0.000000 -0.000000 
							CHANNELS 3 Zrotation Yrotation Xrotation
							End Site
							{
								OFFSET 0.000000 0.000000 0.000000 
							}
						}
					}
				}
			}
			JOINT RightArm
			{
				OFFSET -3.136600 1.374050 -0.404650 
				CHANNELS 3 Zrotation Yrotation Xrotation
				JOINT RightForeArm
				{
					OFFSET -5.241900 -0.000000 -0.000000 
					CHANNELS 3 Zrotation Yrotation Xrotation
					JOINT RightHand
					{
						OFFSET -3.444170 -0.000000 -0.000000 
						CHANNELS 3 Zrotation Yrotation Xrotation
						JOINT RightHandIndex1
						{
							OFFSET -0.622530 -0.000000 -0.000000 
							CHANNELS 3 Zrotation Yrotation Xrotation
							End Site
							{
								OFFSET 0.000000 0.000000 0.000000 
							}
						}
					}
				}
			}
		}
	}
}
MOTION
Frames: 7
Frame Time: 0.041667
-0.434496 18.409279 0.846543 -177.726662 58.618046 -161.650391 -2.995776 -28.701904 -21.103382 -1.085863 4.223982 10.731468 -2.815990 13.450989 11.272398 3.303700 -11.171200 -32.859500 18.670031 1.735365 -17.335184 0.710630 -4.547426 14.011433 8.688264 -28.115399 -11.618617 -0.454500 4.324800 -11.992200 -17.623243 7.712145 49.246550 5.553578 4.623034 -22.214553 20.032793 -21.796532 31.922837 5.315300 -6.945000 15.858600 -111.621822 -40.239499 101.986773 120.454621 -63.210255 -92.261330 1.729652 -0.347583 -85.028563 -7.125000 0.000000 0.000000 -66.792963 79.098901 -22.253977 -51.670507 52.070898 -29.464647 0.834222 0.621458 -29.315011 7.125000 0.000000 0.000000 
-0.431082 18.410210 0.846957 -177.813911 59.068372 -161.556581 -2.906096 -28.645327 -21.161034 -1.085718 4.296276 10.775268 -2.891215 13.729165 11.095495 3.275000 -11.127500 -32.711100 18.674406 1.855677 -17.177563 0.722040 -4.478483 13.861794 8.697256 -28.109133 -11.450316 -0.476700 4.428000 -12.283900 -20.449871 8.106224 47.608496 6.133721 4.369870 -22.508507 20.094919 -21.616667 32.580533 5.380300 -6.846800 15.996400 -110.580293 -40.006891 100.733201 120.943469 -63.072132 -92.498695 1.651414 -0.279645 -84.995786 -7.125000 0.000000 0.000000 -73.832265 79.610354 -29.823995 -49.793556 51.430135 -27.984841 0.818513 0.567029 -27.237008 7.125000 0.000000 0.000000 
-0.429323 18.412383 0.847784 -177.773599 59.360365 -161.465947 -2.866027 -28.576954 -21.136550 -1.087668 4.311032 10.761041 -2.948135 13.910150 11.005632 3.282000 -11.138100 -32.747100 18.677291 1.946030 -17.108818 0.726299 -4.450444 13.795524 8.687919 -28.066984 -11.312024 -0.503900 4.550400 -12.630600 -21.481470 8.200942 46.964281 6.412246 4.280794 -22.547174 20.141022 -21.590001 32.688444 5.409900 -6.862300 15.982200 -110.247440 -39.915695 100.244575 121.260620 -62.989116 -92.668917 1.617399 -0.253986 -84.970713 -7.125000 0.000000 0.000000 -78.456980 79.556516 -34.717422 -48.023989 50.760036 -26.566486 0.793786 0.517295 -25.123000 7.125000 0.000000 0.000000 
-0.428289 18.413417 0.846543 -177.725401 59.566351 -161.429859 -2.893836 -28.523453 -21.102317 -1.084611 4.310008 10.763574 -3.012631 14.085974 10.946589 3.257200 -11.100200 -32.618700 18.613257 2.011298 -17.090863 0.734914 -4.421388 13.707473 8.662944 -27.980515 -11.162146 -0.516200 4.605200 -12.785700 -21.383900 8.111075 47.038797 6.509611 4.274100 -22.430660 20.018177 -21.611062 32.629959 5.352500 -6.912900 15.956400 -110.255099 -40.011070 100.107616 121.472415 -62.925818 -92.782775 1.619799 -0.259349 -84.828564 -7.125000 0.000000 0.000000 -81.440063 79.153166 -37.753800 -46.377950 50.083811 -25.235837 0.757516 0.474831 -22.783957 7.125000 0.000000 0.000000 
-0.425185 18.414969 0.844784 -177.764004 59.799535 -161.448973 -2.963288 -28.461480 -21.044842 -1.085053 4.308147 10.757902 -3.079627 14.258877 10.828418 3.229300 -11.057300 -32.473400 18.506452 2.136445 -17.033518 0.743458 -4.392954 13.616967 8.669684 -27.984263 -11.041737 -0.511700 4.585000 -12.728700 -21.555049 8.111642 46.942832 6.649387 4.281578 -22.331977 20.023269 -21.676377 32.561806 5.356100 -6.976700 15.950900 -110.358106 -40.102697 100.050448 121.559274 -62.901864 -92.842039 1.617697 -0.265682 -84.697327 -7.125000 0.000000 0.000000 -83.499314 78.852985 -39.915447 -44.885835 49.433417 -24.043205 0.725197 0.439495 -20.275621 7.125000 0.000000 0.000000 
-0.421358 18.416624 0.845094 -177.715860 60.045755 -161.356759 -2.943446 -28.385796 -20.989187 -1.088247 4.299621 10.710065 -3.143536 14.456479 10.785307 3.244100 -11.080200 -32.550700 18.484309 2.296628 -16.959424 0.751897 -4.365123 13.531219 8.690730 -28.036591 -10.944723 -0.520500 4.623800 -12.838500 -22.033984 8.192982 46.654038 6.837139 4.286625 -22.252651 20.013902 -21.719434 32.425232 5.337400 -7.036000 15.848600 -110.379709 -40.137184 99.963239 121.638598 -62.878360 -92.900473 1.611373 -0.269962 -84.636796 -7.125000 0.000000 0.000000 -85.318537 78.663573 -42.009114 -43.475829 48.787169 -22.934474 0.696488 0.400681 -17.748075 7.125000 0.000000 0.000000 
-0.416288 18.417969 0.846646 -177.581483 60.277396 -161.248961 -2.903095 -28.297566 -20.880999 -1.089870 4.291933 10.683496 -3.202612 14.605344 10.680767 3.206300 -11.021800 -32.353300 18.494557 2.529931 -16.778409 0.768660 -4.322500 13.413272 8.704708 -28.081722 -10.961497 -0.509900 4.577200 -12.706500 -22.358926 8.269566 46.484954 6.996124 4.311049 -22.150967 19.949141 -21.773117 32.154844 5.272700 -7.101600 15.684100 -110.347355 -40.198239 99.961049 121.832049 -62.801800 -93.030570 1.607305 -0.277908 -84.559436 -7.125000 0.000000 0.000000 -86.603541 78.399628 -43.550428 -42.130414 48.129837 -21.875472 0.664237 0.362309 -15.255291 7.125000 0.000000 0.000000 
